<svg width="251" height="63" viewBox="0 0 251 63" fill="none" xmlns="http://www.w3.org/2000/svg">
<path d="M0 31H91V63H0V31Z" fill="#2F1CFA"/>
<path d="M0 0H251V31H0V0Z" fill="#00B09D"/>
<path d="M72.1138 54.8001V41.5761H73.5958V43.0581H73.8238C74.1531 42.4881 74.6091 42.0574 75.1918 41.7661C75.7744 41.4621 76.4078 41.3101 77.0918 41.3101C77.8644 41.3101 78.5801 41.5001 79.2388 41.8801C79.8974 42.2474 80.4231 42.7921 80.8158 43.5141C81.2211 44.2234 81.4238 45.0847 81.4238 46.0981V46.4781C81.4238 47.5041 81.2274 48.3717 80.8348 49.0811C80.4421 49.7904 79.9101 50.3351 79.2388 50.7151C78.5801 51.0824 77.8518 51.2661 77.0538 51.2661C76.4458 51.2661 75.8378 51.1267 75.2298 50.8481C74.6218 50.5567 74.1531 50.1261 73.8238 49.5561H73.5958V54.8001H72.1138ZM76.7498 49.8601C77.6491 49.8601 78.3964 49.5561 78.9918 48.9481C79.5998 48.3401 79.9038 47.5167 79.9038 46.4781V46.0981C79.9038 45.4267 79.7644 44.8377 79.4858 44.3311C79.2071 43.8244 78.8271 43.4317 78.3458 43.1531C77.8771 42.8617 77.3451 42.7161 76.7498 42.7161C76.1671 42.7161 75.6351 42.8681 75.1538 43.1721C74.6851 43.4634 74.3051 43.8687 74.0138 44.3881C73.7351 44.9074 73.5958 45.5027 73.5958 46.1741V46.4021C73.5958 47.0987 73.7351 47.7067 74.0138 48.2261C74.2924 48.7454 74.6724 49.1507 75.1538 49.4421C75.6351 49.7207 76.1671 49.8601 76.7498 49.8601Z" fill="#FFFBFB"/>
<path d="M64.242 51.2662C63.2033 51.2662 62.3547 50.9242 61.696 50.2402C61.0373 49.5562 60.708 48.5428 60.708 47.2002V41.5762H62.19V47.0102C62.19 47.9982 62.3927 48.7202 62.798 49.1762C63.2033 49.6322 63.824 49.8602 64.66 49.8602C65.5593 49.8602 66.2623 49.5562 66.769 48.9482C67.2883 48.3275 67.548 47.5042 67.548 46.4782V41.5762H69.03V51.0002H67.548V49.2902H67.32C67.016 49.8982 66.617 50.3795 66.123 50.7342C65.629 51.0888 65.002 51.2662 64.242 51.2662Z" fill="#FFFBFB"/>
<path d="M52.6583 51.0002C52.2277 51.0002 51.873 50.8609 51.5943 50.5822C51.3283 50.3035 51.1953 49.9489 51.1953 49.5182V42.9442H48.2313V41.5762H51.1953V37.7002H52.6773V41.5762H56.3253V42.9442H52.6773V49.0622C52.6773 49.4422 52.8483 49.6322 53.1903 49.6322H55.8693V51.0002H52.6583Z" fill="#FFFBFB"/>
<path d="M41.1196 51.2661C40.2203 51.2661 39.4223 51.0634 38.7256 50.6581C38.0416 50.2401 37.5033 49.6701 37.1106 48.9481C36.7179 48.2134 36.5216 47.3647 36.5216 46.4021V45.9461C36.5216 45.0594 36.7243 44.2677 37.1296 43.5711C37.5349 42.8744 38.0859 42.3234 38.7826 41.9181C39.4919 41.5127 40.2836 41.3101 41.1576 41.3101C41.9303 41.3101 42.5953 41.4494 43.1526 41.7281C43.7226 42.0067 44.1849 42.3614 44.5396 42.7921C44.9069 43.2227 45.1729 43.6851 45.3376 44.1791C45.5149 44.6604 45.6036 45.1101 45.6036 45.5281V46.7441H38.0036C38.0416 47.6687 38.3329 48.4224 38.8776 49.0051C39.4349 49.5751 40.1949 49.8601 41.1576 49.8601C42.0569 49.8601 42.7283 49.6701 43.1716 49.2901C43.6149 48.9101 43.9189 48.4541 44.0836 47.9221L45.4896 48.3021C45.2236 49.1761 44.7296 49.8917 44.0076 50.4491C43.2983 50.9937 42.3356 51.2661 41.1196 51.2661ZM38.0416 45.3761H44.1216C44.0963 44.8314 43.9379 44.3627 43.6466 43.9701C43.3679 43.5647 43.0069 43.2544 42.5636 43.0391C42.1203 42.8237 41.6516 42.7161 41.1576 42.7161C40.3216 42.7161 39.6186 42.9694 39.0486 43.4761C38.4786 43.9827 38.1429 44.6161 38.0416 45.3761Z" fill="#FFFBFB"/>
<path d="M29.4858 51.2661C28.5865 51.2661 27.7885 51.0634 27.0918 50.6581C26.4078 50.2401 25.8695 49.6701 25.4768 48.9481C25.0842 48.2134 24.8878 47.3647 24.8878 46.4021V45.9461C24.8878 45.0594 25.0905 44.2677 25.4958 43.5711C25.9012 42.8744 26.4522 42.3234 27.1488 41.9181C27.8582 41.5127 28.6498 41.3101 29.5238 41.3101C30.2965 41.3101 30.9615 41.4494 31.5188 41.7281C32.0888 42.0067 32.5512 42.3614 32.9058 42.7921C33.2732 43.2227 33.5392 43.6851 33.7038 44.1791C33.8812 44.6604 33.9698 45.1101 33.9698 45.5281V46.7441H26.3698C26.4078 47.6687 26.6992 48.4224 27.2438 49.0051C27.8012 49.5751 28.5612 49.8601 29.5238 49.8601C30.4232 49.8601 31.0945 49.6701 31.5378 49.2901C31.9812 48.9101 32.2852 48.4541 32.4498 47.9221L33.8558 48.3021C33.5898 49.1761 33.0958 49.8917 32.3738 50.4491C31.6645 50.9937 30.7018 51.2661 29.4858 51.2661ZM26.4078 45.3761H32.4878C32.4625 44.8314 32.3042 44.3627 32.0128 43.9701C31.7342 43.5647 31.3732 43.2544 30.9298 43.0391C30.4865 42.8237 30.0178 42.7161 29.5238 42.7161C28.6878 42.7161 27.9848 42.9694 27.4148 43.4761C26.8448 43.9827 26.5092 44.6161 26.4078 45.3761Z" fill="#FFFBFB"/>
<path d="M12.912 51.0001V41.5761H14.394V42.6021H14.622C14.7867 42.1587 15.0273 41.8357 15.344 41.6331C15.6607 41.4177 16.0343 41.3101 16.465 41.3101C16.921 41.3101 17.2947 41.4304 17.586 41.6711C17.89 41.9117 18.099 42.2221 18.213 42.6021H18.441C18.8717 41.7407 19.5557 41.3101 20.493 41.3101C21.2023 41.3101 21.747 41.5381 22.127 41.9941C22.5197 42.4374 22.716 43.0201 22.716 43.7421V51.0001H21.234V44.2361C21.234 43.7927 21.1327 43.4317 20.93 43.1531C20.7273 42.8617 20.4043 42.7161 19.961 42.7161C19.543 42.7161 19.201 42.8744 18.935 43.1911C18.6817 43.5077 18.555 43.9827 18.555 44.6161V51.0001H17.073V44.1601C17.073 43.7421 16.959 43.4001 16.731 43.1341C16.503 42.8554 16.199 42.7161 15.819 42.7161C15.363 42.7161 15.0083 42.8807 14.755 43.2101C14.5143 43.5394 14.394 43.9701 14.394 44.5021V51.0001H12.912Z" fill="#FFFBFB"/>
<path d="M235.934 22V16.66L230.954 8H232.874L236.634 14.72H236.914L240.674 8H242.594L237.614 16.66V22H235.934Z" fill="#FFFBFB"/>
<path d="M218.73 22V8H224.39C225.257 8 226.017 8.15333 226.67 8.46C227.337 8.75333 227.857 9.18 228.23 9.74C228.604 10.2867 228.79 10.9467 228.79 11.72V11.94C228.79 12.86 228.57 13.5867 228.13 14.12C227.69 14.6533 227.17 15.0133 226.57 15.2V15.48C227.05 15.4933 227.444 15.6533 227.75 15.96C228.07 16.2533 228.23 16.7 228.23 17.3V22H226.57V17.5C226.57 17.1 226.457 16.7933 226.23 16.58C226.017 16.3667 225.69 16.26 225.25 16.26H220.41V22H218.73ZM220.41 14.74H224.23C225.15 14.74 225.857 14.52 226.35 14.08C226.857 13.6267 227.11 13 227.11 12.2V12.06C227.11 11.26 226.864 10.64 226.37 10.2C225.877 9.74667 225.164 9.52 224.23 9.52H220.41V14.74Z" fill="#FFFBFB"/>
<path d="M209.232 22.2802C207.565 22.2802 206.232 21.8002 205.232 20.8402C204.245 19.8669 203.752 18.4535 203.752 16.6002V13.4002C203.752 11.5469 204.245 10.1402 205.232 9.18021C206.232 8.20688 207.565 7.72021 209.232 7.72021C210.912 7.72021 212.245 8.20688 213.232 9.18021C214.232 10.1402 214.732 11.5469 214.732 13.4002V16.6002C214.732 18.4535 214.232 19.8669 213.232 20.8402C212.245 21.8002 210.912 22.2802 209.232 22.2802ZM209.232 20.7802C210.445 20.7802 211.385 20.4202 212.052 19.7002C212.718 18.9669 213.052 17.9535 213.052 16.6602V13.3402C213.052 12.0469 212.718 11.0402 212.052 10.3202C211.385 9.58688 210.445 9.22021 209.232 9.22021C208.032 9.22021 207.098 9.58688 206.432 10.3202C205.765 11.0402 205.432 12.0469 205.432 13.3402V16.6602C205.432 17.9535 205.765 18.9669 206.432 19.7002C207.098 20.4202 208.032 20.7802 209.232 20.7802Z" fill="#FFFBFB"/>
<path d="M195.259 22V9.52H190.759V8H201.439V9.52H196.939V22H195.259Z" fill="#FFFBFB"/>
<path d="M183.179 22.2802C181.512 22.2802 180.185 21.8002 179.199 20.8402C178.212 19.8669 177.719 18.4535 177.719 16.6002V13.4002C177.719 11.5469 178.212 10.1402 179.199 9.18021C180.185 8.20688 181.512 7.72021 183.179 7.72021C184.832 7.72021 186.099 8.18021 186.979 9.10021C187.872 10.0202 188.319 11.2802 188.319 12.8802V12.9802H186.659V12.8202C186.659 11.7669 186.372 10.9069 185.799 10.2402C185.239 9.56021 184.365 9.22021 183.179 9.22021C181.992 9.22021 181.065 9.58688 180.399 10.3202C179.732 11.0402 179.399 12.0535 179.399 13.3602V16.6402C179.399 17.9469 179.732 18.9669 180.399 19.7002C181.065 20.4202 181.992 20.7802 183.179 20.7802C184.365 20.7802 185.239 20.4469 185.799 19.7802C186.372 19.1002 186.659 18.2335 186.659 17.1802V16.8602H188.319V17.1202C188.319 18.7202 187.872 19.9802 186.979 20.9002C186.099 21.8202 184.832 22.2802 183.179 22.2802Z" fill="#FFFBFB"/>
<path d="M163.416 22L167.736 8H170.696L175.016 22H173.276L172.196 18.46H166.236L165.156 22H163.416ZM166.656 16.94H171.756L169.356 9.02H169.076L166.656 16.94Z" fill="#FFFBFB"/>
<path d="M153.395 22V8H161.855V9.52H155.075V14.22H161.315V15.74H155.075V22H153.395Z" fill="#FFFBFB"/>
<path d="M134.588 22V8H143.208V9.52H136.268V14.2H142.648V15.72H136.268V20.48H143.308V22H134.588Z" fill="#FFFBFB"/>
<path d="M120.771 22V8H126.431C127.298 8 128.058 8.15333 128.711 8.46C129.378 8.75333 129.898 9.18 130.271 9.74C130.644 10.2867 130.831 10.9467 130.831 11.72V11.94C130.831 12.86 130.611 13.5867 130.171 14.12C129.731 14.6533 129.211 15.0133 128.611 15.2V15.48C129.091 15.4933 129.484 15.6533 129.791 15.96C130.111 16.2533 130.271 16.7 130.271 17.3V22H128.611V17.5C128.611 17.1 128.498 16.7933 128.271 16.58C128.058 16.3667 127.731 16.26 127.291 16.26H122.451V22H120.771ZM122.451 14.74H126.271C127.191 14.74 127.898 14.52 128.391 14.08C128.898 13.6267 129.151 13 129.151 12.2V12.06C129.151 11.26 128.904 10.64 128.411 10.2C127.918 9.74667 127.204 9.52 126.271 9.52H122.451V14.74Z" fill="#FFFBFB"/>
<path d="M105.873 22L110.193 8H113.153L117.473 22H115.733L114.653 18.46H108.693L107.613 22H105.873ZM109.113 16.94H114.213L111.813 9.02H111.533L109.113 16.94Z" fill="#FFFBFB"/>
<path d="M90.2208 22L87.9408 8H89.6208L91.6008 20.92H91.8808L94.4608 8H97.4608L100.021 20.92H100.301L102.281 8H103.961L101.681 22H98.6808L96.1008 9H95.8208L93.2408 22H90.2208Z" fill="#FFFBFB"/>
<path d="M79.283 22V9.52H74.783V8H85.463V9.52H80.963V22H79.283Z" fill="#FFFBFB"/>
<path d="M63.8422 22V8H72.3022V9.52H65.5222V14.22H71.7622V15.74H65.5222V22H63.8422Z" fill="#FFFBFB"/>
<path d="M54.3433 22.2802C52.6766 22.2802 51.3433 21.8002 50.3433 20.8402C49.3566 19.8669 48.8633 18.4535 48.8633 16.6002V13.4002C48.8633 11.5469 49.3566 10.1402 50.3433 9.18021C51.3433 8.20688 52.6766 7.72021 54.3433 7.72021C56.0233 7.72021 57.3566 8.20688 58.3433 9.18021C59.3433 10.1402 59.8433 11.5469 59.8433 13.4002V16.6002C59.8433 18.4535 59.3433 19.8669 58.3433 20.8402C57.3566 21.8002 56.0233 22.2802 54.3433 22.2802ZM54.3433 20.7802C55.5566 20.7802 56.4966 20.4202 57.1633 19.7002C57.8299 18.9669 58.1633 17.9535 58.1633 16.6602V13.3402C58.1633 12.0469 57.8299 11.0402 57.1633 10.3202C56.4966 9.58688 55.5566 9.22021 54.3433 9.22021C53.1433 9.22021 52.2099 9.58688 51.5433 10.3202C50.8766 11.0402 50.5433 12.0469 50.5433 13.3402V16.6602C50.5433 17.9535 50.8766 18.9669 51.5433 19.7002C52.2099 20.4202 53.1433 20.7802 54.3433 20.7802Z" fill="#FFFBFB"/>
<path d="M40.4577 22.2802C39.4444 22.2802 38.5377 22.1002 37.7377 21.7402C36.9377 21.3802 36.3044 20.8402 35.8377 20.1202C35.3844 19.3869 35.1577 18.4735 35.1577 17.3802V16.9602H36.8177V17.3802C36.8177 18.5402 37.1577 19.4069 37.8377 19.9802C38.5177 20.5402 39.391 20.8202 40.4577 20.8202C41.551 20.8202 42.3844 20.5735 42.9577 20.0802C43.531 19.5869 43.8177 18.9669 43.8177 18.2202C43.8177 17.7002 43.6844 17.2869 43.4177 16.9802C43.1644 16.6735 42.8044 16.4269 42.3377 16.2402C41.8711 16.0402 41.3244 15.8669 40.6977 15.7202L39.6577 15.4602C38.8444 15.2469 38.1244 14.9869 37.4977 14.6802C36.871 14.3735 36.3777 13.9735 36.0177 13.4802C35.671 12.9735 35.4977 12.3269 35.4977 11.5402C35.4977 10.7535 35.691 10.0735 36.0777 9.50022C36.4777 8.92688 37.0311 8.48688 37.7377 8.18021C38.4577 7.87355 39.2844 7.72021 40.2177 7.72021C41.1644 7.72021 42.011 7.88688 42.7577 8.22022C43.5177 8.54022 44.1111 9.02021 44.5377 9.66021C44.9777 10.2869 45.1977 11.0802 45.1977 12.0402V12.8802H43.5377V12.0402C43.5377 11.3602 43.391 10.8135 43.0977 10.4002C42.8177 9.98688 42.4244 9.68022 41.9177 9.48021C41.4244 9.28021 40.8577 9.18021 40.2177 9.18021C39.2977 9.18021 38.5577 9.38688 37.9977 9.80022C37.4377 10.2002 37.1577 10.7735 37.1577 11.5202C37.1577 12.0135 37.2777 12.4135 37.5177 12.7202C37.7577 13.0269 38.0977 13.2802 38.5377 13.4802C38.9777 13.6669 39.5044 13.8335 40.1177 13.9802L41.1577 14.2402C41.971 14.4135 42.6977 14.6535 43.3377 14.9602C43.9911 15.2535 44.511 15.6602 44.8977 16.1802C45.2844 16.6869 45.4777 17.3535 45.4777 18.1802C45.4777 19.0069 45.2711 19.7269 44.8577 20.3402C44.4444 20.9535 43.8577 21.4335 43.0977 21.7802C42.351 22.1135 41.471 22.2802 40.4577 22.2802Z" fill="#FFFBFB"/>
<path d="M23.3977 22V8H25.0777V22H23.3977Z" fill="#FFFBFB"/>
<path d="M8.5 22L12.82 8H15.78L20.1 22H18.36L17.28 18.46H11.32L10.24 22H8.5ZM11.74 16.94H16.84L14.44 9.02H14.16L11.74 16.94Z" fill="#FFFBFB"/>
</svg>
