<svg xmlns="http://www.w3.org/2000/svg" width="400" height="400" fill="none"><path fill="#fff" d="M0 0h400v400H0z"/><mask id="a" width="300" height="300" x="49" y="50" maskUnits="userSpaceOnUse" style="mask-type:alpha"><path fill="#d9d9d9" d="M49 50h299.783v299.783H49z"/></mask><g mask="url(#a)"><path fill="#1c1b1f" d="M123.943 318.556q-18.105 0-30.914-12.802-12.808-12.801-12.808-30.913 0-18.117 12.808-30.92 12.809-12.801 30.914-12.802 18.117 0 30.913 12.809 12.808 12.796 12.808 30.913 0 6.871-2.03 13.27a42.3 42.3 0 0 1-6.09 12.02v-8.428a99.9 99.9 0 0 0 39.341 8.115q41.852 0 70.895-29.037 29.037-29.043 29.037-70.889h24.977q0 25.918-9.831 48.717c-9.83 22.799-15.46 28.416-26.706 39.655q-16.862 16.863-39.655 26.706-22.799 9.831-48.71 9.831a126.8 126.8 0 0 1-27.481-2.966 121.7 121.7 0 0 1-25.918-8.901 43.6 43.6 0 0 1-10.465 4.22 44.8 44.8 0 0 1-11.079 1.409zm0-24.976q7.813 0 13.269-5.469 5.469-5.47 5.469-13.27 0-7.813-5.469-13.276a18.06 18.06 0 0 0-13.269-5.463q-7.807 0-13.27 5.463a18.07 18.07 0 0 0-5.469 13.276q0 7.8 5.469 13.27c3.646 3.642 8.069 5.469 13.27 5.469m74.949-49.966q-18.118 0-30.92-12.809-12.796-12.796-12.802-30.913 0-18.112 12.808-30.913 12.796-12.809 30.914-12.809 18.117 0 30.913 12.809 12.808 12.808 12.808 30.913 0 18.118-12.808 30.913-12.809 12.809-30.913 12.809M73.977 199.892q0-25.919 9.837-48.717 9.837-22.8 26.705-39.655 16.857-16.863 39.655-26.706 22.8-9.83 48.718-9.83 14.05 0 27.474 2.965a121.2 121.2 0 0 1 25.924 8.901 43.6 43.6 0 0 1 10.458-4.213 44.8 44.8 0 0 1 11.086-1.41q18.118 0 30.92 12.81 12.802 12.795 12.802 30.912 0 18.105-12.809 30.914-12.795 12.808-30.913 12.808-18.105 0-30.913-12.808t-12.809-30.914q0-6.871 2.037-13.276a42.3 42.3 0 0 1 6.084-12.02v8.428a97.3 97.3 0 0 0-19.36-6.084 100 100 0 0 0-19.981-2.03q-41.846 0-70.889 29.036-29.043 29.043-29.043 70.895H73.983zm199.857-56.21q7.813 0 13.27-5.463 5.475-5.469 5.469-13.27 0-7.812-5.469-13.276a18.07 18.07 0 0 0-13.27-5.462 18.06 18.06 0 0 0-13.269 5.462 18.06 18.06 0 0 0-5.463 13.276q0 7.801 5.463 13.27 5.469 5.463 13.269 5.463"/></g></svg>