<svg xmlns="http://www.w3.org/2000/svg" width="400" height="400" fill="none"><path fill="#fff" d="M0 0h400v400H0z"/><path fill="#1d63ed" d="M350.583 181.105c-6.57-4.432-23.835-6.326-36.387-2.937-.677-12.531-7.123-23.09-18.916-32.303l-4.366-2.937-2.91 4.404c-5.719 8.702-8.129 20.294-7.275 30.832.673 6.493 2.927 13.791 7.275 19.087-16.336 9.497-31.394 7.341-98.08 7.341H86.964c-.302 15.091 2.119 44.123 20.539 67.756a84 84 0 0 0 6.687 7.568c14.976 15.031 37.603 26.052 71.439 26.084 51.618.046 95.844-27.916 122.745-95.53 8.852.146 32.22 1.591 43.655-20.557.28-.373 2.91-5.874 2.91-5.874l-4.359-2.938zm-196.426-13.802h-28.953v29.017h28.953zm37.404 0h-28.952v29.017h28.952zm37.404 0h-28.952v29.017h28.952zm37.405 0h-28.953v29.017h28.953zm-149.618 0H87.8v29.017h28.952zm37.405-36.65h-28.953v29.018h28.953zm37.404 0h-28.952v29.018h28.952zm37.404 0h-28.952v29.018h28.952zm0-36.653h-28.952v29.017h28.952z"/></svg>