<svg xmlns="http://www.w3.org/2000/svg" width="400" height="400"><g fill="none" fill-rule="evenodd"><path fill="#00f" d="m112.379 218.052-36.35-15.912v-8.812l36.35-15.839v10.378l-25.355 9.758 25.355 10.122z"/><path fill="#d40000" d="m120.656 216.864 13.853-19.917-13.274-18.752h12.406l6.8 10.632 7.161-10.632h11.936l-13.021 18.315 14.214 20.354h-12.478l-7.812-11.98-7.885 11.98zm45.356-38.669h9.368v5.28q5.027-6.154 11.972-6.154 3.69 0 6.402 1.53 2.712 1.528 4.448 4.624 2.532-3.096 5.462-4.625a13.3 13.3 0 0 1 6.257-1.529q4.231 0 7.162 1.73t4.376 5.08q1.05 2.475 1.049 8.01v24.723h-10.163v-22.102q0-5.752-1.05-7.428-1.41-2.184-4.34-2.184-2.133 0-4.014 1.31t-2.713 3.842q-.832 2.53-.832 7.992v18.57h-10.163v-21.191q0-5.644-.543-7.283-.542-1.638-1.682-2.44-1.14-.8-3.092-.8-2.352 0-4.232 1.274t-2.695 3.678q-.813 2.403-.813 7.974v18.788h-10.164zm66.587 38.67v-53.38h10.164v53.38z"/><path fill="#00f" d="m263.742 217.236 13.13-55.2h7.631l-13.274 55.2zm24.078.816v-10.305l25.391-10.05-25.39-9.94v-10.231l36.386 15.839v8.739l-36.386 15.948z"/></g></svg>